<mxfile host="app.diagrams.net" agent="Mozilla/5.0 (Windows NT 10.0; Win64; x64) AppleWebKit/537.36 (KHTML, like Gecko) Chrome/132.0.0.0 Safari/537.36" version="26.0.16">
  <diagram name="Page-1" id="komy5vae4DG8PTjbOASb">
    <mxGraphModel dx="648" dy="355" grid="1" gridSize="10" guides="1" tooltips="1" connect="1" arrows="1" fold="1" page="1" pageScale="1" pageWidth="1100" pageHeight="850" math="0" shadow="0">
      <root>
        <mxCell id="0" />
        <mxCell id="1" parent="0" />
        <mxCell id="ewME9GzvEeTOoPMvBvQr-2" style="edgeStyle=orthogonalEdgeStyle;rounded=0;orthogonalLoop=1;jettySize=auto;html=1;exitX=1;exitY=0.5;exitDx=0;exitDy=0;" parent="1" source="GSiIFtyiULH2rWyeXYVv-1" edge="1">
          <mxGeometry relative="1" as="geometry">
            <mxPoint x="360" y="220" as="targetPoint" />
          </mxGeometry>
        </mxCell>
        <mxCell id="CsjnuNUqqZVbwUetn0qW-55" style="edgeStyle=orthogonalEdgeStyle;rounded=0;orthogonalLoop=1;jettySize=auto;html=1;entryX=0;entryY=0.5;entryDx=0;entryDy=0;" parent="1" source="GSiIFtyiULH2rWyeXYVv-1" target="CsjnuNUqqZVbwUetn0qW-54" edge="1">
          <mxGeometry relative="1" as="geometry" />
        </mxCell>
        <mxCell id="GSiIFtyiULH2rWyeXYVv-1" value="PC" style="rounded=0;whiteSpace=wrap;html=1;" parent="1" vertex="1">
          <mxGeometry x="240" y="200" width="80" height="40" as="geometry" />
        </mxCell>
        <mxCell id="ewME9GzvEeTOoPMvBvQr-1" value="I-CACHE" style="rounded=0;whiteSpace=wrap;html=1;" parent="1" vertex="1">
          <mxGeometry x="360" y="200" width="80" height="40" as="geometry" />
        </mxCell>
        <mxCell id="ewME9GzvEeTOoPMvBvQr-6" value="IF-DEC" style="text;html=1;align=center;verticalAlign=middle;resizable=0;points=[];autosize=1;strokeColor=none;fillColor=none;" parent="1" vertex="1">
          <mxGeometry x="490" y="170" width="60" height="30" as="geometry" />
        </mxCell>
        <mxCell id="ewME9GzvEeTOoPMvBvQr-8" value="instruction&lt;div&gt;pc&lt;/div&gt;" style="shape=process;whiteSpace=wrap;html=1;backgroundOutline=1;align=left;verticalAlign=top;" parent="1" vertex="1">
          <mxGeometry x="480" y="200" width="80" height="160" as="geometry" />
        </mxCell>
        <mxCell id="ewME9GzvEeTOoPMvBvQr-9" value="DECODER" style="rounded=0;whiteSpace=wrap;html=1;" parent="1" vertex="1">
          <mxGeometry x="600" y="200" width="80" height="40" as="geometry" />
        </mxCell>
        <mxCell id="ewME9GzvEeTOoPMvBvQr-10" value="" style="endArrow=classic;html=1;rounded=0;" parent="1" edge="1">
          <mxGeometry width="50" height="50" relative="1" as="geometry">
            <mxPoint x="560" y="219.82999999999998" as="sourcePoint" />
            <mxPoint x="600" y="219.82999999999998" as="targetPoint" />
          </mxGeometry>
        </mxCell>
        <mxCell id="ewME9GzvEeTOoPMvBvQr-11" value="&lt;div&gt;pc&lt;/div&gt;&lt;div&gt;opcode&lt;/div&gt;&lt;div&gt;fun3&lt;/div&gt;&lt;div&gt;fun7&lt;/div&gt;&lt;div&gt;imm&lt;/div&gt;&lt;div&gt;&lt;span style=&quot;font-size: 11px; text-align: center; text-wrap-mode: nowrap; background-color: rgb(255, 255, 255);&quot;&gt;rs1data&lt;/span&gt;&lt;/div&gt;&lt;div&gt;&lt;span style=&quot;font-size: 11px; text-align: center; text-wrap-mode: nowrap; background-color: transparent; color: light-dark(rgb(0, 0, 0), rgb(255, 255, 255));&quot;&gt;rs2data&lt;/span&gt;&lt;/div&gt;&lt;div&gt;rd&lt;/div&gt;" style="shape=process;whiteSpace=wrap;html=1;backgroundOutline=1;align=left;verticalAlign=top;" parent="1" vertex="1">
          <mxGeometry x="760" y="200" width="80" height="160" as="geometry" />
        </mxCell>
        <mxCell id="ewME9GzvEeTOoPMvBvQr-15" style="edgeStyle=orthogonalEdgeStyle;rounded=0;orthogonalLoop=1;jettySize=auto;html=1;exitX=1;exitY=0.5;exitDx=0;exitDy=0;" parent="1" edge="1">
          <mxGeometry relative="1" as="geometry">
            <mxPoint x="480" y="219.75" as="targetPoint" />
            <mxPoint x="440" y="219.75" as="sourcePoint" />
          </mxGeometry>
        </mxCell>
        <mxCell id="CsjnuNUqqZVbwUetn0qW-2" value="" style="endArrow=classic;html=1;rounded=0;" parent="1" edge="1">
          <mxGeometry width="50" height="50" relative="1" as="geometry">
            <mxPoint x="840" y="299.76" as="sourcePoint" />
            <mxPoint x="880" y="299.76" as="targetPoint" />
          </mxGeometry>
        </mxCell>
        <mxCell id="CsjnuNUqqZVbwUetn0qW-4" value="&lt;div&gt;&lt;span style=&quot;background-color: transparent; color: light-dark(rgb(0, 0, 0), rgb(255, 255, 255));&quot;&gt;opcode&lt;/span&gt;&lt;/div&gt;&lt;div&gt;alu-result&lt;/div&gt;&lt;div&gt;&lt;span style=&quot;font-size: 11px; text-align: center; text-wrap-mode: nowrap; background-color: transparent; color: light-dark(rgb(0, 0, 0), rgb(255, 255, 255));&quot;&gt;rs2data&lt;/span&gt;&lt;/div&gt;&lt;div&gt;rd&lt;/div&gt;&lt;div&gt;fun3&lt;/div&gt;" style="shape=process;whiteSpace=wrap;html=1;backgroundOutline=1;align=left;verticalAlign=top;" parent="1" vertex="1">
          <mxGeometry x="1120" y="200" width="80" height="160" as="geometry" />
        </mxCell>
        <mxCell id="CsjnuNUqqZVbwUetn0qW-5" value="DEC-EXE" style="text;html=1;align=center;verticalAlign=middle;resizable=0;points=[];autosize=1;strokeColor=none;fillColor=none;" parent="1" vertex="1">
          <mxGeometry x="760" y="170" width="80" height="30" as="geometry" />
        </mxCell>
        <mxCell id="CsjnuNUqqZVbwUetn0qW-6" value="REG-FILE" style="rounded=0;whiteSpace=wrap;html=1;" parent="1" vertex="1">
          <mxGeometry x="600" y="280" width="80" height="40" as="geometry" />
        </mxCell>
        <mxCell id="CsjnuNUqqZVbwUetn0qW-9" value="" style="endArrow=classic;html=1;rounded=0;exitX=0.5;exitY=1;exitDx=0;exitDy=0;" parent="1" source="ewME9GzvEeTOoPMvBvQr-9" target="CsjnuNUqqZVbwUetn0qW-6" edge="1">
          <mxGeometry width="50" height="50" relative="1" as="geometry">
            <mxPoint x="750" y="290" as="sourcePoint" />
            <mxPoint x="800" y="240" as="targetPoint" />
          </mxGeometry>
        </mxCell>
        <mxCell id="CsjnuNUqqZVbwUetn0qW-16" value="rs1, rs2" style="edgeLabel;html=1;align=center;verticalAlign=middle;resizable=0;points=[];" parent="CsjnuNUqqZVbwUetn0qW-9" vertex="1" connectable="0">
          <mxGeometry x="-0.04" y="1" relative="1" as="geometry">
            <mxPoint y="-4" as="offset" />
          </mxGeometry>
        </mxCell>
        <mxCell id="CsjnuNUqqZVbwUetn0qW-11" value="" style="endArrow=classic;html=1;rounded=0;entryX=0;entryY=0.75;entryDx=0;entryDy=0;" parent="1" edge="1">
          <mxGeometry width="50" height="50" relative="1" as="geometry">
            <mxPoint x="680" y="299.71" as="sourcePoint" />
            <mxPoint x="760" y="300" as="targetPoint" />
          </mxGeometry>
        </mxCell>
        <mxCell id="CsjnuNUqqZVbwUetn0qW-15" value="rs1data&lt;div&gt;rs2data&lt;/div&gt;" style="edgeLabel;html=1;align=center;verticalAlign=middle;resizable=0;points=[];" parent="CsjnuNUqqZVbwUetn0qW-11" vertex="1" connectable="0">
          <mxGeometry x="-0.043" relative="1" as="geometry">
            <mxPoint as="offset" />
          </mxGeometry>
        </mxCell>
        <mxCell id="CsjnuNUqqZVbwUetn0qW-12" value="" style="endArrow=classic;html=1;rounded=0;entryX=0;entryY=0.125;entryDx=0;entryDy=0;entryPerimeter=0;" parent="1" target="ewME9GzvEeTOoPMvBvQr-11" edge="1">
          <mxGeometry width="50" height="50" relative="1" as="geometry">
            <mxPoint x="680" y="219.82999999999998" as="sourcePoint" />
            <mxPoint x="720" y="220.12" as="targetPoint" />
          </mxGeometry>
        </mxCell>
        <mxCell id="CsjnuNUqqZVbwUetn0qW-21" style="edgeStyle=orthogonalEdgeStyle;rounded=0;orthogonalLoop=1;jettySize=auto;html=1;entryX=0;entryY=0.375;entryDx=0;entryDy=0;entryPerimeter=0;" parent="1" source="GSiIFtyiULH2rWyeXYVv-1" target="ewME9GzvEeTOoPMvBvQr-8" edge="1">
          <mxGeometry relative="1" as="geometry">
            <mxPoint x="470" y="250" as="targetPoint" />
            <Array as="points">
              <mxPoint x="340" y="220" />
              <mxPoint x="340" y="260" />
            </Array>
          </mxGeometry>
        </mxCell>
        <mxCell id="CsjnuNUqqZVbwUetn0qW-25" value="ALU" style="rounded=0;whiteSpace=wrap;html=1;" parent="1" vertex="1">
          <mxGeometry x="880" y="280" width="80" height="40" as="geometry" />
        </mxCell>
        <mxCell id="CsjnuNUqqZVbwUetn0qW-27" value="EXE-MEM" style="text;html=1;align=center;verticalAlign=middle;resizable=0;points=[];autosize=1;strokeColor=none;fillColor=none;" parent="1" vertex="1">
          <mxGeometry x="1120" y="170" width="80" height="30" as="geometry" />
        </mxCell>
        <mxCell id="CsjnuNUqqZVbwUetn0qW-28" style="edgeStyle=orthogonalEdgeStyle;rounded=0;orthogonalLoop=1;jettySize=auto;html=1;entryX=0;entryY=0.125;entryDx=0;entryDy=0;entryPerimeter=0;" parent="1" source="CsjnuNUqqZVbwUetn0qW-25" edge="1">
          <mxGeometry relative="1" as="geometry">
            <mxPoint x="1120" y="300" as="targetPoint" />
          </mxGeometry>
        </mxCell>
        <mxCell id="CsjnuNUqqZVbwUetn0qW-29" value="" style="endArrow=classic;html=1;rounded=0;" parent="1" edge="1">
          <mxGeometry width="50" height="50" relative="1" as="geometry">
            <mxPoint x="840" y="340" as="sourcePoint" />
            <mxPoint x="1120" y="340" as="targetPoint" />
          </mxGeometry>
        </mxCell>
        <mxCell id="CsjnuNUqqZVbwUetn0qW-30" value="PC+IMM" style="rounded=0;whiteSpace=wrap;html=1;" parent="1" vertex="1">
          <mxGeometry x="860" y="200" width="80" height="40" as="geometry" />
        </mxCell>
        <mxCell id="CsjnuNUqqZVbwUetn0qW-35" value="" style="endArrow=classic;html=1;rounded=0;" parent="1" edge="1">
          <mxGeometry width="50" height="50" relative="1" as="geometry">
            <mxPoint x="840" y="219.82999999999998" as="sourcePoint" />
            <mxPoint x="860" y="220" as="targetPoint" />
          </mxGeometry>
        </mxCell>
        <mxCell id="CsjnuNUqqZVbwUetn0qW-43" value="PC+4" style="rounded=0;whiteSpace=wrap;html=1;" parent="1" vertex="1">
          <mxGeometry x="1000" y="240" width="80" height="40" as="geometry" />
        </mxCell>
        <mxCell id="CsjnuNUqqZVbwUetn0qW-46" value="" style="endArrow=classic;html=1;rounded=0;entryX=0;entryY=0.5;entryDx=0;entryDy=0;" parent="1" target="CsjnuNUqqZVbwUetn0qW-43" edge="1">
          <mxGeometry width="50" height="50" relative="1" as="geometry">
            <mxPoint x="840" y="260" as="sourcePoint" />
            <mxPoint x="880" y="260" as="targetPoint" />
            <Array as="points" />
          </mxGeometry>
        </mxCell>
        <mxCell id="CsjnuNUqqZVbwUetn0qW-49" value="" style="endArrow=classic;html=1;rounded=0;exitX=1;exitY=0.5;exitDx=0;exitDy=0;entryX=0.5;entryY=0;entryDx=0;entryDy=0;" parent="1" source="CsjnuNUqqZVbwUetn0qW-30" target="GSiIFtyiULH2rWyeXYVv-1" edge="1">
          <mxGeometry width="50" height="50" relative="1" as="geometry">
            <mxPoint x="1060" y="100" as="sourcePoint" />
            <mxPoint x="1110" y="50" as="targetPoint" />
            <Array as="points">
              <mxPoint x="960" y="220" />
              <mxPoint x="960" y="160" />
              <mxPoint x="280" y="160" />
            </Array>
          </mxGeometry>
        </mxCell>
        <mxCell id="CsjnuNUqqZVbwUetn0qW-66" value="IF JUMP" style="edgeLabel;html=1;align=center;verticalAlign=middle;resizable=0;points=[];" parent="CsjnuNUqqZVbwUetn0qW-49" vertex="1" connectable="0">
          <mxGeometry x="-0.8373" y="2" relative="1" as="geometry">
            <mxPoint as="offset" />
          </mxGeometry>
        </mxCell>
        <mxCell id="CsjnuNUqqZVbwUetn0qW-56" style="edgeStyle=orthogonalEdgeStyle;rounded=0;orthogonalLoop=1;jettySize=auto;html=1;entryX=0;entryY=0.5;entryDx=0;entryDy=0;" parent="1" source="CsjnuNUqqZVbwUetn0qW-54" target="GSiIFtyiULH2rWyeXYVv-1" edge="1">
          <mxGeometry relative="1" as="geometry">
            <Array as="points">
              <mxPoint x="460" y="300" />
              <mxPoint x="460" y="340" />
              <mxPoint x="220" y="340" />
              <mxPoint x="220" y="220" />
            </Array>
          </mxGeometry>
        </mxCell>
        <mxCell id="CsjnuNUqqZVbwUetn0qW-54" value="PC+4" style="rounded=0;whiteSpace=wrap;html=1;" parent="1" vertex="1">
          <mxGeometry x="360" y="280" width="80" height="40" as="geometry" />
        </mxCell>
        <mxCell id="CsjnuNUqqZVbwUetn0qW-58" value="D-CACHE" style="rounded=0;whiteSpace=wrap;html=1;" parent="1" vertex="1">
          <mxGeometry x="1240" y="200" width="80" height="40" as="geometry" />
        </mxCell>
        <mxCell id="CsjnuNUqqZVbwUetn0qW-59" style="edgeStyle=orthogonalEdgeStyle;rounded=0;orthogonalLoop=1;jettySize=auto;html=1;entryX=0;entryY=0.5;entryDx=0;entryDy=0;" parent="1" target="CsjnuNUqqZVbwUetn0qW-58" edge="1">
          <mxGeometry relative="1" as="geometry">
            <mxPoint x="1200" y="219.8" as="sourcePoint" />
            <mxPoint x="1240" y="219.8" as="targetPoint" />
          </mxGeometry>
        </mxCell>
        <mxCell id="CsjnuNUqqZVbwUetn0qW-64" value="" style="endArrow=classic;html=1;rounded=0;" parent="1" edge="1">
          <mxGeometry width="50" height="50" relative="1" as="geometry">
            <mxPoint x="560" y="340" as="sourcePoint" />
            <mxPoint x="760" y="340" as="targetPoint" />
          </mxGeometry>
        </mxCell>
        <mxCell id="CsjnuNUqqZVbwUetn0qW-65" value="" style="endArrow=classic;html=1;rounded=0;entryX=0.5;entryY=1;entryDx=0;entryDy=0;" parent="1" target="CsjnuNUqqZVbwUetn0qW-6" edge="1">
          <mxGeometry width="50" height="50" relative="1" as="geometry">
            <mxPoint x="1340" y="380" as="sourcePoint" />
            <mxPoint x="780" y="480" as="targetPoint" />
            <Array as="points">
              <mxPoint x="640" y="380" />
            </Array>
          </mxGeometry>
        </mxCell>
        <mxCell id="CsjnuNUqqZVbwUetn0qW-67" value="" style="endArrow=classic;html=1;rounded=0;exitX=1;exitY=0.5;exitDx=0;exitDy=0;" parent="1" source="CsjnuNUqqZVbwUetn0qW-25" edge="1">
          <mxGeometry width="50" height="50" relative="1" as="geometry">
            <mxPoint x="1140" y="500" as="sourcePoint" />
            <mxPoint x="980" y="380" as="targetPoint" />
            <Array as="points">
              <mxPoint x="980" y="300" />
            </Array>
          </mxGeometry>
        </mxCell>
        <mxCell id="CsjnuNUqqZVbwUetn0qW-69" value="alu&lt;div&gt;result&lt;/div&gt;" style="edgeLabel;html=1;align=center;verticalAlign=middle;resizable=0;points=[];" parent="CsjnuNUqqZVbwUetn0qW-67" vertex="1" connectable="0">
          <mxGeometry x="-0.18" relative="1" as="geometry">
            <mxPoint as="offset" />
          </mxGeometry>
        </mxCell>
        <mxCell id="CsjnuNUqqZVbwUetn0qW-68" value="" style="endArrow=classic;html=1;rounded=0;exitX=1;exitY=0.5;exitDx=0;exitDy=0;" parent="1" source="CsjnuNUqqZVbwUetn0qW-58" edge="1">
          <mxGeometry width="50" height="50" relative="1" as="geometry">
            <mxPoint x="1200" y="520" as="sourcePoint" />
            <mxPoint x="1340" y="380" as="targetPoint" />
            <Array as="points">
              <mxPoint x="1340" y="220" />
            </Array>
          </mxGeometry>
        </mxCell>
        <mxCell id="CsjnuNUqqZVbwUetn0qW-70" value="rdata" style="edgeLabel;html=1;align=center;verticalAlign=middle;resizable=0;points=[];" parent="CsjnuNUqqZVbwUetn0qW-68" vertex="1" connectable="0">
          <mxGeometry x="-0.5349" y="-1" relative="1" as="geometry">
            <mxPoint as="offset" />
          </mxGeometry>
        </mxCell>
        <mxCell id="m7X6_jEXq3_cN9PKWVXf-3" value="" style="endArrow=classic;html=1;rounded=0;" edge="1" parent="1">
          <mxGeometry width="50" height="50" relative="1" as="geometry">
            <mxPoint x="880" y="340" as="sourcePoint" />
            <mxPoint x="880" y="380" as="targetPoint" />
            <Array as="points">
              <mxPoint x="880" y="340" />
            </Array>
          </mxGeometry>
        </mxCell>
        <mxCell id="m7X6_jEXq3_cN9PKWVXf-4" value="rd" style="edgeLabel;html=1;align=center;verticalAlign=middle;resizable=0;points=[];" vertex="1" connectable="0" parent="m7X6_jEXq3_cN9PKWVXf-3">
          <mxGeometry x="-0.18" relative="1" as="geometry">
            <mxPoint as="offset" />
          </mxGeometry>
        </mxCell>
        <mxCell id="m7X6_jEXq3_cN9PKWVXf-5" value="" style="endArrow=classic;html=1;rounded=0;exitX=1;exitY=0.875;exitDx=0;exitDy=0;exitPerimeter=0;" edge="1" parent="1" source="CsjnuNUqqZVbwUetn0qW-4">
          <mxGeometry width="50" height="50" relative="1" as="geometry">
            <mxPoint x="1210" y="340" as="sourcePoint" />
            <mxPoint x="1240" y="380" as="targetPoint" />
            <Array as="points">
              <mxPoint x="1240" y="340" />
            </Array>
          </mxGeometry>
        </mxCell>
        <mxCell id="m7X6_jEXq3_cN9PKWVXf-6" value="rd" style="edgeLabel;html=1;align=center;verticalAlign=middle;resizable=0;points=[];" vertex="1" connectable="0" parent="m7X6_jEXq3_cN9PKWVXf-5">
          <mxGeometry x="-0.18" relative="1" as="geometry">
            <mxPoint x="-13" as="offset" />
          </mxGeometry>
        </mxCell>
        <mxCell id="m7X6_jEXq3_cN9PKWVXf-7" value="" style="endArrow=classic;html=1;rounded=0;exitX=1;exitY=0.5;exitDx=0;exitDy=0;" edge="1" parent="1" source="CsjnuNUqqZVbwUetn0qW-43">
          <mxGeometry width="50" height="50" relative="1" as="geometry">
            <mxPoint x="1080" y="220" as="sourcePoint" />
            <mxPoint x="1100" y="380" as="targetPoint" />
            <Array as="points">
              <mxPoint x="1100" y="260" />
            </Array>
          </mxGeometry>
        </mxCell>
        <mxCell id="m7X6_jEXq3_cN9PKWVXf-8" value="pc+4" style="edgeLabel;html=1;align=center;verticalAlign=middle;resizable=0;points=[];" vertex="1" connectable="0" parent="m7X6_jEXq3_cN9PKWVXf-7">
          <mxGeometry x="-0.18" relative="1" as="geometry">
            <mxPoint y="-17" as="offset" />
          </mxGeometry>
        </mxCell>
      </root>
    </mxGraphModel>
  </diagram>
</mxfile>
